<svg width="209" height="56" viewBox="0 0 209 56" fill="none" xmlns="http://www.w3.org/2000/svg">
<path d="M88.2316 44.2551C88.4423 44.5172 88.5466 44.844 88.5466 45.2348C88.5466 45.7885 88.3424 46.2191 87.9341 46.5257C87.5257 46.8321 86.9343 46.9859 86.1591 46.9859H83.5183C83.3241 46.9859 83.168 46.8284 83.168 46.634V41.016C83.168 40.8215 83.3251 40.665 83.5183 40.665H85.9882C86.6967 40.665 87.2493 40.8068 87.6457 41.0891C88.0421 41.3724 88.2408 41.7725 88.2408 42.2901C88.2408 42.6217 88.1614 42.9068 88.0024 43.1476C87.8435 43.3884 87.6134 43.5717 87.3131 43.6985C87.715 43.8078 88.0218 43.9931 88.2316 44.2551ZM84.3211 43.3652H85.8892C86.2681 43.3652 86.5563 43.2902 86.7542 43.1393C86.9527 42.9883 87.0516 42.7661 87.0516 42.4707C87.0516 42.1762 86.9527 41.9513 86.7542 41.7985C86.5555 41.6447 86.2672 41.5679 85.8892 41.5679H84.3211V43.3652ZM87.3666 45.1449C87.3666 44.5311 86.9527 44.2237 86.1229 44.2237H84.3211V46.0839H86.1229C86.9527 46.0839 87.3666 45.771 87.3666 45.1449Z" fill="#A8A8A8"/>
<path d="M94.5351 43.3154C94.1305 42.9774 93.5483 42.806 92.7915 42.806H91.0433V40.9597C91.0433 40.7967 90.912 40.667 90.7513 40.667H90.1812C90.0205 40.667 89.8893 40.7967 89.8893 40.9597V46.6933C89.8893 46.8563 90.0205 46.986 90.1812 46.986H92.6022C93.406 46.986 94.0315 46.8026 94.476 46.4313C94.9204 46.0599 95.1422 45.5266 95.1422 44.8274C95.1422 44.1599 94.9408 43.6551 94.5351 43.3154ZM93.6019 45.7674C93.357 45.9776 93.0049 46.0832 92.5485 46.0832H91.0433V43.7005H92.5485C93.4966 43.7005 93.9715 44.082 93.9715 44.847C93.9715 45.2506 93.8486 45.5572 93.6019 45.7674Z" fill="#A8A8A8"/>
<path d="M97.206 40.9597V46.6933C97.206 46.8563 97.0748 46.986 96.914 46.986H96.344C96.1831 46.986 96.0519 46.8563 96.0519 46.6933V40.9597C96.0519 40.7967 96.1831 40.667 96.344 40.667H96.914C97.0748 40.667 97.206 40.7967 97.206 40.9597Z" fill="#A8A8A8"/>
<path d="M76.7103 44.1285V44.6999C76.7103 44.8609 76.5809 44.9925 76.4184 44.9925H53.8505C53.688 44.9925 53.5586 44.8609 53.5586 44.6999V44.1285C53.5586 43.9675 53.688 43.8359 53.8505 43.8359H76.4184C76.5809 43.8359 76.7103 43.9675 76.7103 44.1285Z" fill="#A8A8A8"/>
<path d="M190.715 44.1285V44.6999C190.715 44.8609 190.586 44.9925 190.424 44.9925H167.856C167.694 44.9925 167.563 44.8609 167.563 44.6999V44.1285C167.563 43.9675 167.694 43.8359 167.856 43.8359H190.424C190.586 43.8359 190.715 43.9675 190.715 44.1285Z" fill="#A8A8A8"/>
<path d="M104.054 44.2551C104.264 44.5172 104.369 44.844 104.369 45.2348C104.369 45.7885 104.165 46.2191 103.756 46.5255C103.348 46.8321 102.756 46.9857 101.981 46.9857H99.3774C99.163 46.9857 98.9893 46.8117 98.9893 46.5968V41.0549C98.9893 40.8401 99.163 40.666 99.3774 40.666H101.809C102.518 40.666 103.071 40.8076 103.467 41.0901C103.863 41.3734 104.062 41.7734 104.062 42.2911C104.062 42.6225 103.983 42.9078 103.824 43.1484C103.665 43.3892 103.435 43.5727 103.134 43.6995C103.537 43.8078 103.843 43.993 104.054 44.2551ZM100.143 43.3652H101.711C102.09 43.3652 102.378 43.2902 102.576 43.1392C102.775 42.9883 102.874 42.7661 102.874 42.4707C102.874 42.1762 102.775 41.9512 102.576 41.7985C102.378 41.6447 102.089 41.5678 101.711 41.5678H100.143V43.3652ZM103.189 45.1449C103.189 44.5311 102.775 44.2236 101.945 44.2236H100.143V46.0839H101.945C102.774 46.0839 103.189 45.7709 103.189 45.1449Z" fill="#A8A8A8"/>
<path d="M106.883 46.6572C106.366 46.3776 105.96 45.9887 105.667 45.4923C105.372 44.996 105.225 44.4404 105.225 43.8266C105.225 43.2126 105.372 42.657 105.667 42.1606C105.96 41.6643 106.366 41.2754 106.883 40.9957C107.399 40.7161 107.979 40.5762 108.622 40.5762C109.265 40.5762 109.844 40.7161 110.361 40.9957C110.877 41.2754 111.283 41.6624 111.577 42.1559C111.871 42.6496 112.019 43.206 112.019 43.8266C112.019 44.4469 111.872 45.0035 111.577 45.497C111.283 45.9905 110.877 46.3776 110.361 46.6572C109.844 46.9369 109.265 47.0768 108.622 47.0768C107.979 47.0768 107.399 46.9369 106.883 46.6572ZM109.757 45.7628C110.094 45.573 110.358 45.3081 110.55 44.9682C110.742 44.6283 110.838 44.2478 110.838 43.8255C110.838 43.4042 110.742 43.0236 110.55 42.6829C110.358 42.343 110.094 42.0783 109.757 41.8883C109.421 41.6986 109.042 41.604 108.622 41.604C108.201 41.604 107.822 41.6986 107.486 41.8883C107.15 42.0783 106.886 42.343 106.693 42.6829C106.501 43.0228 106.405 43.4042 106.405 43.8255C106.405 44.2469 106.501 44.6275 106.693 44.9682C106.886 45.3081 107.15 45.573 107.486 45.7628C107.822 45.9525 108.201 46.0471 108.622 46.0471C109.043 46.0479 109.421 45.9525 109.757 45.7628Z" fill="#A8A8A8"/>
<path d="M117.339 44.2736C117.553 44.5414 117.659 44.8561 117.659 45.2173C117.659 45.5968 117.536 45.9265 117.289 46.2061C117.043 46.4858 116.714 46.7016 116.302 46.8516C115.891 47.0015 115.442 47.0775 114.955 47.0775C114.535 47.0775 114.113 47.0193 113.69 46.9016C113.335 46.8034 113.002 46.6636 112.692 46.4831C112.588 46.4228 112.549 46.2905 112.597 46.1812L112.781 45.7645C112.838 45.6366 112.991 45.5839 113.113 45.6524C113.329 45.7737 113.561 45.8709 113.811 45.9451C114.147 46.0441 114.48 46.0942 114.81 46.0942C115.284 46.0942 115.68 46.0006 115.995 45.8145C116.31 45.6284 116.468 45.3719 116.468 45.0469C116.468 44.7699 116.353 44.5589 116.125 44.4143C115.897 44.2699 115.582 44.1978 115.179 44.1978H113.988C113.835 44.1978 113.711 44.0736 113.711 43.92V43.5552C113.711 43.4014 113.835 43.2774 113.988 43.2774H115.089C115.365 43.2774 115.593 43.2319 115.774 43.1422C116.12 42.9708 116.294 42.5449 116.157 42.1846C116.096 42.0245 115.978 41.8921 115.806 41.7875C115.539 41.6253 115.198 41.5438 114.784 41.5438C114.501 41.5438 114.21 41.5847 113.909 41.6662C113.703 41.7217 113.506 41.7949 113.317 41.8866C113.177 41.9542 113.01 41.8856 112.953 41.7401L112.784 41.3059C112.731 41.1706 112.795 41.0197 112.926 40.9586C113.181 40.841 113.447 40.7484 113.726 40.6818C114.089 40.5948 114.451 40.5503 114.811 40.5503C115.28 40.5503 115.71 40.6226 116.104 40.767C116.497 40.9114 116.811 41.1179 117.045 41.3855C117.279 41.6531 117.397 41.9681 117.397 42.329C117.397 42.6421 117.313 42.9162 117.144 43.1505C116.984 43.3736 116.767 43.5476 116.494 43.6727C116.478 43.6802 116.479 43.7014 116.496 43.707C116.854 43.8273 117.135 44.0162 117.339 44.2736Z" fill="#A8A8A8"/>
<path d="M127.263 46.7015L127.254 42.7975L125.265 46.1255C125.213 46.2117 125.121 46.2644 125.02 46.2644H124.82C124.72 46.2644 124.627 46.2126 124.576 46.1274L122.586 42.8512V46.7005C122.586 46.8589 122.459 46.9867 122.301 46.9867H121.763C121.605 46.9867 121.478 46.8589 121.478 46.7005V40.952C121.478 40.7937 121.605 40.666 121.763 40.666H122.28C122.38 40.666 122.473 40.7187 122.524 40.8049L124.937 44.8467L127.323 40.8068C127.374 40.7196 127.468 40.666 127.568 40.666H128.076C128.233 40.666 128.36 40.7937 128.361 40.9512L128.378 46.6997C128.378 46.858 128.25 46.9867 128.092 46.9867H127.546C127.391 46.9867 127.264 46.8589 127.263 46.7015Z" fill="#A8A8A8"/>
<path d="M135.16 40.666C135.342 40.666 135.458 40.8605 135.371 41.0216L132.823 45.7681C132.582 46.2201 132.295 46.558 131.962 46.7839C131.629 47.0098 131.267 47.1228 130.877 47.1228C130.642 47.1228 130.409 47.0849 130.177 47.0108C130.05 46.9691 129.977 46.8339 130.017 46.7061L130.166 46.2265C130.204 46.1051 130.332 46.0357 130.455 46.0653C130.606 46.1024 130.738 46.1209 130.849 46.1209C131.228 46.1209 131.54 45.9256 131.786 45.5338L131.885 45.3802L129.56 41.0216C129.474 40.8605 129.591 40.6669 129.773 40.6669H130.475C130.565 40.6669 130.649 40.7179 130.69 40.7994L132.488 44.3783L134.34 40.7975C134.382 40.7179 134.464 40.6669 134.554 40.6669L135.16 40.666Z" fill="#A8A8A8"/>
<path d="M137.486 46.6572C136.973 46.3776 136.571 45.9905 136.279 45.497C135.988 45.0035 135.842 44.4469 135.842 43.8266C135.842 43.207 135.989 42.6496 136.283 42.1559C136.577 41.6624 136.982 41.2754 137.496 40.9957C138.009 40.7161 138.584 40.5762 139.221 40.5762C139.737 40.5762 140.209 40.666 140.635 40.8476C140.946 40.979 141.221 41.1532 141.462 41.3707C141.608 41.5041 141.604 41.7384 141.46 41.8755L141.197 42.1226C141.069 42.244 140.87 42.2458 140.735 42.132C140.323 41.7819 139.836 41.6069 139.274 41.6069C138.842 41.6069 138.455 41.7012 138.112 41.8912C137.769 42.081 137.502 42.344 137.31 42.6811C137.118 43.0181 137.022 43.4005 137.022 43.8274C137.022 44.2553 137.118 44.6367 137.31 44.9747C137.502 45.3128 137.769 45.5748 138.112 45.7646C138.455 45.9544 138.842 46.0489 139.274 46.0489C139.835 46.0489 140.321 45.872 140.733 45.5193C140.869 45.4025 141.069 45.4043 141.198 45.5285L141.462 45.7803C141.605 45.9174 141.608 46.1507 141.462 46.2832C141.22 46.5018 140.943 46.6766 140.63 46.8082C140.2 46.9887 139.727 47.0794 139.211 47.0794C138.575 47.0768 138 46.9369 137.486 46.6572Z" fill="#A8A8A8"/>
<path d="M143.852 46.6572C143.335 46.3776 142.93 45.9887 142.636 45.4923C142.341 44.996 142.194 44.4404 142.194 43.8266C142.194 43.2126 142.341 42.657 142.636 42.1606C142.93 41.6643 143.335 41.2754 143.852 40.9957C144.368 40.7161 144.948 40.5762 145.591 40.5762C146.234 40.5762 146.813 40.7161 147.33 40.9957C147.846 41.2754 148.252 41.6624 148.547 42.1559C148.84 42.6496 148.988 43.206 148.988 43.8266C148.988 44.4469 148.841 45.0035 148.547 45.497C148.252 45.9905 147.846 46.3776 147.33 46.6572C146.813 46.9369 146.234 47.0768 145.591 47.0768C144.948 47.0768 144.368 46.9369 143.852 46.6572ZM146.726 45.7628C147.063 45.573 147.327 45.3081 147.519 44.9682C147.711 44.6283 147.808 44.2478 147.808 43.8255C147.808 43.4042 147.711 43.0236 147.519 42.6829C147.327 42.343 147.063 42.0783 146.726 41.8883C146.39 41.6986 146.011 41.604 145.591 41.604C145.17 41.604 144.791 41.6986 144.455 41.8883C144.119 42.0783 143.855 42.343 143.662 42.6829C143.47 43.0228 143.374 43.4042 143.374 43.8255C143.374 44.2469 143.47 44.6275 143.662 44.9682C143.855 45.3081 144.119 45.573 144.455 45.7628C144.791 45.9525 145.17 46.0471 145.591 46.0471C146.011 46.0479 146.39 45.9525 146.726 45.7628Z" fill="#A8A8A8"/>
<path d="M154.309 40.9364C154.714 41.117 155.025 41.3764 155.241 41.7134C155.457 42.0505 155.565 42.4504 155.565 42.9145C155.565 43.3718 155.457 43.7709 155.241 44.1108C155.025 44.4505 154.713 44.7118 154.309 44.8923C153.903 45.0729 153.427 45.1636 152.88 45.1636H151.456V46.6684C151.456 46.8443 151.314 46.9869 151.139 46.9869H150.604C150.428 46.9869 150.286 46.8443 150.286 46.6684V40.9856C150.286 40.8096 150.428 40.667 150.604 40.667H152.88C153.426 40.6662 153.903 40.7559 154.309 40.9364ZM153.988 43.8441C154.252 43.6274 154.385 43.3173 154.385 42.9145C154.385 42.5117 154.252 42.2014 153.988 41.9847C153.724 41.768 153.336 41.6597 152.826 41.6597H151.456V44.1701H152.826C153.337 44.1691 153.724 44.0608 153.988 43.8441Z" fill="#A8A8A8"/>
<path d="M160.54 45.5236H157.386L156.842 46.8035C156.793 46.9146 156.685 46.9867 156.566 46.9867H156.021C155.803 46.9867 155.658 46.7618 155.746 46.5617L158.313 40.8428C158.363 40.7345 158.471 40.665 158.588 40.665H159.353C159.472 40.665 159.579 40.7345 159.627 40.8419L162.203 46.5608C162.292 46.7598 162.148 46.9859 161.929 46.9859H161.366C161.246 46.9859 161.139 46.9146 161.09 46.8043L160.54 45.5236ZM160.151 44.6024L158.963 41.8391L157.783 44.6024H160.151Z" fill="#A8A8A8"/>
<path d="M172.99 31.4552L166.674 17.4339C166.485 17.0135 166.065 16.7412 165.605 16.7412H163.686C163.226 16.7412 162.806 17.0135 162.617 17.4339L156.322 31.4552C156.157 31.8218 156.188 32.2404 156.406 32.5784C156.622 32.9145 156.991 33.1144 157.391 33.1144H158.808C159.282 33.1144 159.704 32.834 159.89 32.3997L161.102 29.5513H168.151L169.381 32.4061C169.567 32.8366 169.99 33.1154 170.459 33.1154H171.922C172.324 33.1154 172.69 32.9155 172.908 32.5774C173.124 32.2404 173.156 31.82 172.99 31.4552ZM162.478 26.3382L164.625 21.3138L166.786 26.3382H162.478Z" fill="white"/>
<path d="M68.5576 30.3015C68.5576 30.6247 68.4198 30.9404 68.1833 31.1627C67.531 31.7794 66.764 32.2757 65.9029 32.6387C64.8005 33.1007 63.5744 33.335 62.2568 33.335C60.6296 33.335 59.1392 32.972 57.8206 32.2526C57.1581 31.8915 56.564 31.4591 56.0419 30.9562C55.5198 30.4533 55.069 29.882 54.6929 29.2459C53.9427 27.9746 53.5602 26.5206 53.5602 24.928C53.5602 23.3354 53.9464 21.8815 54.7058 20.6083C55.4644 19.3341 56.5197 18.3248 57.8447 17.6034C59.1614 16.8858 60.6537 16.521 62.2808 16.521C63.5993 16.521 64.8209 16.7561 65.9167 17.2202C66.7705 17.5813 67.5328 18.0775 68.1833 18.6915C68.4217 18.9166 68.5576 19.2313 68.5576 19.5573C68.5576 19.8832 68.4264 20.1861 68.187 20.4101L67.3315 21.2186C66.8869 21.6371 66.2088 21.6492 65.7541 21.2472C64.8097 20.4065 63.7176 19.9981 62.412 19.9981C61.4455 19.9981 60.5714 20.212 59.8127 20.6305C59.0598 21.0472 58.4656 21.6343 58.0443 22.3741C57.6211 23.1158 57.4048 23.9751 57.4048 24.928C57.4048 25.8809 57.6211 26.7392 58.0443 27.4837C58.4656 28.2217 59.0607 28.8088 59.8127 29.2255C60.5714 29.6459 61.4455 29.858 62.412 29.858C63.714 29.858 64.806 29.4459 65.7494 28.5986C66.1977 28.195 66.8952 28.207 67.3351 28.6274L68.1944 29.4477C68.4301 29.6728 68.5594 29.9755 68.5576 30.3015Z" fill="#27AE60"/>
<path d="M84.3426 17.9182V31.9395C84.3426 32.5866 83.8158 33.1144 83.1682 33.1144H81.7387C81.0929 33.1144 80.5661 32.5866 80.5661 31.9395V20.1303H73.5594V31.9403C73.5594 32.5876 73.0328 33.1154 72.385 33.1154H70.9557C70.3097 33.1154 69.7812 32.5876 69.7812 31.9403V17.9182C69.7812 17.269 70.3097 16.7412 70.9557 16.7412H83.1682C83.8158 16.7422 84.3426 17.269 84.3426 17.9182Z" fill="#27AE60"/>
<path d="M98.8605 30.9255V31.9395C98.8605 32.5866 98.3337 33.1144 97.6861 33.1144H87.5387C86.891 33.1144 86.3643 32.5866 86.3643 31.9395V17.9182C86.3643 17.269 86.891 16.7412 87.5387 16.7412H97.3793C98.0271 16.7412 98.5537 17.269 98.5537 17.9182V18.9321C98.5537 19.5813 98.0271 20.1091 97.3793 20.1091H90.185V23.1454H96.435C97.0808 23.1454 97.6094 23.6732 97.6094 24.3222V25.2926C97.6094 25.9418 97.0808 26.4696 96.435 26.4696H90.185V29.7486H97.6851C98.3337 29.7486 98.8605 30.2764 98.8605 30.9255Z" fill="#27AE60"/>
<path d="M116.682 30.9033V35.3286C116.682 35.9777 116.155 36.5056 115.508 36.5056H114.253C113.607 36.5056 113.078 35.9777 113.078 35.3286V33.1144H101.208C100.562 33.1144 100.033 32.5866 100.033 31.9395V17.9182C100.033 17.269 100.562 16.7412 101.208 16.7412H102.637C103.285 16.7412 103.812 17.269 103.812 17.9182V29.7263H110.598V17.9182C110.598 17.269 111.125 16.7412 111.773 16.7412H113.222C113.87 16.7412 114.397 17.269 114.397 17.9182V29.7263H115.508C116.155 29.7263 116.682 30.2541 116.682 30.9033Z" fill="#27AE60"/>
<path d="M143.5 17.9181V18.9525C143.5 19.6015 142.973 20.1293 142.325 20.1293H138.406V31.9395C138.406 32.5866 137.879 33.1144 137.231 33.1144H135.78C135.134 33.1144 134.607 32.5866 134.607 31.9395V20.1303H130.708C130.06 20.1303 129.534 19.6025 129.534 18.9533V17.919C129.534 17.27 130.06 16.7422 130.708 16.7422H142.325C142.973 16.7422 143.5 17.269 143.5 17.9181Z" fill="white"/>
<path d="M127.768 23.0249H120.216C119.571 23.0249 119.043 23.5537 119.043 24.2V25.6548C119.043 26.3039 119.57 26.8317 120.216 26.8317H127.768C128.277 26.8317 128.69 26.4187 128.69 25.9085V23.9482C128.69 23.4379 128.277 23.0249 127.768 23.0249Z" fill="white"/>
<path d="M157.712 19.5155C157.424 19.0663 157.073 18.6664 156.658 18.32C156.242 17.9737 155.765 17.681 155.23 17.4422C154.183 16.9765 152.946 16.7412 151.552 16.7412H145.92C145.272 16.7412 144.745 17.269 144.745 17.9182V31.9395C144.745 32.5866 145.272 33.1144 145.92 33.1144H147.392C148.04 33.1144 148.567 32.5866 148.567 31.9395V28.6689H151.553C152.947 28.6689 154.184 28.4336 155.231 27.9678C156.302 27.4901 157.14 26.7891 157.715 25.8817C158.29 24.977 158.581 23.9094 158.581 22.7055C158.581 21.486 158.29 20.4146 157.712 19.5155ZM154.737 22.7065C154.737 23.5435 154.48 24.1612 153.95 24.5981C153.397 25.0491 152.546 25.2806 151.422 25.2806H148.568V20.1303H151.422C152.545 20.1303 153.397 20.3609 153.95 20.8146C154.479 21.2489 154.737 21.8675 154.737 22.7065Z" fill="white"/>
<path d="M188.695 17.9182V31.9395C188.695 32.5866 188.167 33.1144 187.52 33.1144H186.047C185.399 33.1144 184.873 32.5866 184.873 31.9395V26.5123H177.888V31.9395C177.888 32.5866 177.362 33.1144 176.715 33.1144H175.241C174.594 33.1144 174.066 32.5866 174.066 31.9395V17.9182C174.066 17.269 174.594 16.7412 175.241 16.7412H176.715C177.362 16.7412 177.888 17.269 177.888 17.9182V23.1019H184.873V17.9182C184.873 17.269 185.399 16.7412 186.047 16.7412H187.52C188.167 16.7422 188.695 17.269 188.695 17.9182Z" fill="white"/>
<path d="M204.647 30.3015C204.647 30.6247 204.51 30.9404 204.274 31.1627C203.621 31.7794 202.852 32.2757 201.992 32.6387C200.891 33.1007 199.664 33.335 198.346 33.335C196.719 33.335 195.229 32.972 193.91 32.2526C192.586 31.5312 191.533 30.5191 190.782 29.2459C190.032 27.9746 189.65 26.5206 189.65 24.928C189.65 23.3354 190.035 21.8815 190.795 20.6083C191.554 19.3369 192.61 18.3248 193.934 17.6034C195.25 16.8858 196.743 16.521 198.37 16.521C199.689 16.521 200.911 16.7561 202.007 17.2202C202.861 17.5813 203.622 18.0775 204.274 18.6915C204.511 18.9166 204.647 19.2313 204.647 19.5573C204.647 19.8832 204.516 20.1861 204.277 20.4101L203.422 21.2186C202.975 21.6371 202.298 21.6492 201.843 21.2472C200.899 20.4065 199.806 19.9981 198.502 19.9981C197.534 19.9981 196.661 20.212 195.902 20.6305C195.149 21.0472 194.555 21.6343 194.135 22.3741C193.711 23.1158 193.495 23.9751 193.495 24.928C193.495 25.8809 193.711 26.7392 194.135 27.4837C194.555 28.2217 195.151 28.8088 195.902 29.2255C196.661 29.6459 197.534 29.858 198.502 29.858C199.804 29.858 200.896 29.4459 201.84 28.5986C202.287 28.195 202.985 28.207 203.427 28.6274L204.284 29.4477C204.52 29.6728 204.649 29.9755 204.647 30.3015Z" fill="white"/>
<path d="M39.6305 13.8441L36.5981 15.0897C35.856 15.3943 35.709 16.3676 36.3133 16.8944C42.2778 22.0892 44.4844 30.1749 41.777 37.6512C38.8055 45.8517 30.8498 50.7947 22.0062 49.967C13.4934 49.1604 6.34259 42.1599 5.37234 33.6798C4.35038 24.5384 9.42778 16.224 17.7548 13.4636C17.8065 13.4432 17.8889 13.4321 17.9711 13.4321C18.2603 13.4321 18.6825 13.5359 19.0032 13.608L19.2508 13.6701C19.7461 13.7841 20.2515 13.9497 20.7883 14.1248C21.8824 14.497 22.9967 14.8693 24.2146 14.8489C25.8445 14.8174 27.5891 14.559 29.4361 14.0942L29.5295 14.0627C30.0043 13.9487 30.4884 13.8145 30.9735 13.6591L31.5105 13.4932C32.0879 13.3173 32.6562 13.1413 33.2236 12.9654L34.1004 12.707L43.6037 9.89391L42.7167 9.10771C39.4559 6.21211 36.1535 4.01953 32.6147 2.41752C29.6014 1.03222 27.0014 0.42199 24.3911 0.504408C20.3772 0.659054 17.2096 2.56194 14.7019 6.31587L14.5883 6.48171C18.3546 5.45754 26.8877 4.09266 36.8152 8.73554C36.8152 8.73554 21.7391 5.89181 13.5978 9.58365C13.2162 9.7597 12.8447 9.956 12.4835 10.1625C12.2875 10.2661 12.1019 10.3801 11.916 10.5032C3.74424 15.4155 -0.930281 24.7531 0.328217 34.277C1.73178 44.9693 9.89346 53.2523 20.646 54.9071C21.802 55.0829 22.9468 55.1757 24.0926 55.1757C28.6331 55.1757 33.0489 53.831 36.8364 51.4115C40.6128 48.9918 43.7599 45.5063 45.7622 41.2358C50.0376 32.0796 47.977 21.1077 40.7929 14.0598C40.4852 13.7645 40.0251 13.683 39.6305 13.8441Z" fill="#27AE60"/>
<path d="M31.2531 40.9885L31.1607 42.6128C31.1607 42.6128 31.1497 42.6128 31.1376 42.6015C30.6552 42.2561 23.0332 36.7725 18.7791 33.1779C18.7329 33.1436 18.6875 33.0972 18.6413 33.0629C17.5493 32.1296 16.4571 31.1619 15.5026 30.0564C13.2036 27.4294 12.6631 23.9273 14.0195 20.9437C23.5267 23.6744 27.0904 32.9019 27.3206 33.5241C25.3894 24.6533 18.1008 19.0426 15.3991 17.2333L16.5255 17.1638C19.1007 17.0139 22.8253 17.1407 25.4577 19.9751C27.2171 21.8873 28.6308 24.0652 29.539 26.2886C31.5174 31.0924 31.5293 36.1965 31.2531 40.9885Z" fill="#27AE60"/>
</svg>
