<svg width="209" height="55" viewBox="0 0 209 55" fill="none" xmlns="http://www.w3.org/2000/svg">
<g clip-path="url(#clip0_1_803)">
<path d="M88.2316 44.2552C88.4423 44.5173 88.5466 44.8441 88.5466 45.2348C88.5466 45.7886 88.3424 46.2192 87.9341 46.5258C87.5257 46.8322 86.9343 46.986 86.1591 46.986H83.5183C83.3241 46.986 83.168 46.8285 83.168 46.634V41.016C83.168 40.8216 83.3251 40.6651 83.5183 40.6651H85.9882C86.6967 40.6651 87.2493 40.8068 87.6457 41.0892C88.0421 41.3725 88.2408 41.7726 88.2408 42.2902C88.2408 42.6217 88.1614 42.9069 88.0024 43.1477C87.8435 43.3885 87.6134 43.5717 87.3131 43.6986C87.715 43.8079 88.0218 43.9931 88.2316 44.2552ZM84.3211 43.3652H85.8892C86.2681 43.3652 86.5563 43.2903 86.7542 43.1393C86.9527 42.9884 87.0516 42.7661 87.0516 42.4708C87.0516 42.1762 86.9527 41.9513 86.7542 41.7985C86.5555 41.6447 86.2672 41.5679 85.8892 41.5679H84.3211V43.3652ZM87.3666 45.145C87.3666 44.5311 86.9527 44.2237 86.1229 44.2237H84.3211V46.084H86.1229C86.9527 46.084 87.3666 45.771 87.3666 45.145Z" fill="#A8A8A8"/>
<path d="M94.5354 43.3154C94.1308 42.9774 93.5487 42.806 92.7919 42.806H91.0436V40.9597C91.0436 40.7967 90.9124 40.667 90.7517 40.667H90.1816C90.0209 40.667 89.8896 40.7967 89.8896 40.9597V46.6933C89.8896 46.8563 90.0209 46.986 90.1816 46.986H92.6026C93.4064 46.986 94.0319 46.8026 94.4763 46.4313C94.9208 46.0599 95.1426 45.5266 95.1426 44.8274C95.1426 44.1599 94.9412 43.6551 94.5354 43.3154ZM93.6022 45.7674C93.3573 45.9776 93.0053 46.0832 92.5488 46.0832H91.0436V43.7005H92.5488C93.4969 43.7005 93.9718 44.082 93.9718 44.847C93.9718 45.2506 93.849 45.5572 93.6022 45.7674Z" fill="#A8A8A8"/>
<path d="M97.206 40.9596V46.6933C97.206 46.8563 97.0748 46.986 96.914 46.986H96.344C96.1831 46.986 96.0519 46.8563 96.0519 46.6933V40.9596C96.0519 40.7966 96.1831 40.6669 96.344 40.6669H96.914C97.0748 40.6669 97.206 40.7966 97.206 40.9596Z" fill="#A8A8A8"/>
<path d="M76.7102 44.1282V44.6997C76.7102 44.8607 76.5808 44.9922 76.4183 44.9922H53.8504C53.6879 44.9922 53.5585 44.8607 53.5585 44.6997V44.1282C53.5585 43.9672 53.6879 43.8357 53.8504 43.8357H76.4183C76.5808 43.8357 76.7102 43.9672 76.7102 44.1282Z" fill="#A8A8A8"/>
<path d="M190.714 44.1282V44.6997C190.714 44.8607 190.585 44.9922 190.423 44.9922H167.855C167.693 44.9922 167.562 44.8607 167.562 44.6997V44.1282C167.562 43.9672 167.693 43.8357 167.855 43.8357H190.423C190.585 43.8357 190.714 43.9672 190.714 44.1282Z" fill="#A8A8A8"/>
<path d="M104.054 44.2552C104.264 44.5173 104.369 44.8441 104.369 45.2349C104.369 45.7886 104.165 46.2192 103.756 46.5256C103.348 46.8322 102.756 46.9858 101.981 46.9858H99.3774C99.163 46.9858 98.9893 46.8118 98.9893 46.5969V41.0551C98.9893 40.8402 99.163 40.6661 99.3774 40.6661H101.809C102.518 40.6661 103.071 40.8077 103.467 41.0902C103.863 41.3735 104.062 41.7735 104.062 42.2912C104.062 42.6226 103.983 42.9079 103.824 43.1486C103.665 43.3894 103.435 43.5728 103.134 43.6996C103.537 43.8079 103.843 43.9932 104.054 44.2552ZM100.143 43.3653H101.711C102.09 43.3653 102.378 43.2903 102.576 43.1394C102.775 42.9884 102.874 42.7662 102.874 42.4708C102.874 42.1763 102.775 41.9514 102.576 41.7986C102.378 41.6448 102.089 41.568 101.711 41.568H100.143V43.3653ZM103.189 45.145C103.189 44.5312 102.775 44.2238 101.945 44.2238H100.143V46.084H101.945C102.774 46.084 103.189 45.7711 103.189 45.145Z" fill="#A8A8A8"/>
<path d="M106.882 46.6572C106.366 46.3776 105.96 45.9887 105.666 45.4923C105.372 44.996 105.225 44.4404 105.225 43.8266C105.225 43.2126 105.372 42.657 105.666 42.1606C105.96 41.6643 106.366 41.2754 106.882 40.9957C107.399 40.7161 107.978 40.5762 108.621 40.5762C109.264 40.5762 109.844 40.7161 110.36 40.9957C110.877 41.2754 111.282 41.6624 111.577 42.1559C111.871 42.6496 112.019 43.206 112.019 43.8266C112.019 44.4469 111.872 45.0035 111.577 45.497C111.282 45.9905 110.877 46.3776 110.36 46.6572C109.844 46.9369 109.264 47.0768 108.621 47.0768C107.979 47.0768 107.399 46.9369 106.882 46.6572ZM109.757 45.7628C110.093 45.573 110.358 45.3081 110.55 44.9682C110.742 44.6283 110.838 44.2478 110.838 43.8255C110.838 43.4042 110.742 43.0236 110.55 42.6829C110.358 42.343 110.093 42.0783 109.757 41.8883C109.42 41.6986 109.042 41.604 108.621 41.604C108.201 41.604 107.822 41.6986 107.486 41.8883C107.149 42.0783 106.885 42.343 106.693 42.6829C106.501 43.0228 106.405 43.4042 106.405 43.8255C106.405 44.2469 106.501 44.6275 106.693 44.9682C106.885 45.3081 107.149 45.573 107.486 45.7628C107.822 45.9525 108.201 46.0471 108.621 46.0471C109.043 46.0479 109.42 45.9525 109.757 45.7628Z" fill="#A8A8A8"/>
<path d="M117.339 44.2736C117.553 44.5414 117.659 44.8561 117.659 45.2173C117.659 45.5968 117.536 45.9265 117.289 46.2061C117.043 46.4858 116.714 46.7016 116.302 46.8516C115.891 47.0015 115.442 47.0775 114.955 47.0775C114.535 47.0775 114.113 47.0193 113.69 46.9016C113.335 46.8034 113.002 46.6636 112.692 46.4831C112.588 46.4228 112.549 46.2905 112.597 46.1812L112.781 45.7645C112.838 45.6366 112.991 45.5839 113.113 45.6524C113.329 45.7737 113.561 45.8709 113.811 45.9451C114.147 46.0441 114.48 46.0942 114.81 46.0942C115.284 46.0942 115.68 46.0006 115.995 45.8145C116.31 45.6284 116.468 45.3719 116.468 45.0469C116.468 44.7699 116.353 44.5589 116.125 44.4143C115.897 44.2699 115.582 44.1978 115.179 44.1978H113.988C113.835 44.1978 113.711 44.0736 113.711 43.92V43.5552C113.711 43.4014 113.835 43.2774 113.988 43.2774H115.089C115.365 43.2774 115.593 43.2319 115.774 43.1422C116.12 42.9708 116.294 42.5449 116.157 42.1846C116.096 42.0245 115.978 41.8921 115.806 41.7875C115.539 41.6253 115.198 41.5438 114.784 41.5438C114.501 41.5438 114.21 41.5847 113.909 41.6662C113.703 41.7217 113.506 41.7949 113.317 41.8866C113.177 41.9542 113.01 41.8856 112.953 41.7401L112.784 41.3059C112.731 41.1706 112.795 41.0197 112.926 40.9586C113.181 40.841 113.447 40.7484 113.726 40.6818C114.089 40.5948 114.451 40.5503 114.811 40.5503C115.28 40.5503 115.71 40.6226 116.104 40.767C116.497 40.9114 116.811 41.1179 117.045 41.3855C117.279 41.6531 117.397 41.9681 117.397 42.329C117.397 42.6421 117.313 42.9162 117.144 43.1505C116.984 43.3736 116.767 43.5476 116.494 43.6727C116.478 43.6802 116.479 43.7014 116.496 43.707C116.854 43.8273 117.135 44.0162 117.339 44.2736Z" fill="#A8A8A8"/>
<path d="M127.263 46.7017L127.254 42.7976L125.265 46.1257C125.213 46.2118 125.121 46.2646 125.02 46.2646H124.82C124.72 46.2646 124.627 46.2127 124.576 46.1275L122.586 42.8513V46.7007C122.586 46.859 122.459 46.9868 122.301 46.9868H121.763C121.605 46.9868 121.478 46.859 121.478 46.7007V40.9521C121.478 40.7938 121.605 40.6661 121.763 40.6661H122.28C122.38 40.6661 122.473 40.7189 122.524 40.805L124.937 44.8468L127.323 40.8069C127.374 40.7197 127.468 40.6661 127.568 40.6661H128.076C128.233 40.6661 128.36 40.7938 128.361 40.9513L128.378 46.6998C128.378 46.8581 128.25 46.9868 128.092 46.9868H127.546C127.391 46.9868 127.264 46.859 127.263 46.7017Z" fill="#A8A8A8"/>
<path d="M135.16 40.6661C135.342 40.6661 135.458 40.8606 135.371 41.0217L132.823 45.7682C132.582 46.2202 132.295 46.5581 131.962 46.784C131.629 47.0099 131.267 47.1229 130.877 47.1229C130.642 47.1229 130.409 47.0851 130.177 47.0109C130.05 46.9693 129.977 46.834 130.017 46.7062L130.166 46.2266C130.204 46.1052 130.332 46.0358 130.455 46.0654C130.606 46.1026 130.738 46.121 130.849 46.121C131.228 46.121 131.54 45.9257 131.786 45.5339L131.885 45.3803L129.56 41.0217C129.474 40.8606 129.591 40.667 129.773 40.667H130.475C130.565 40.667 130.649 40.718 130.69 40.7995L132.488 44.3784L134.34 40.7977C134.382 40.718 134.464 40.667 134.554 40.667L135.16 40.6661Z" fill="#A8A8A8"/>
<path d="M137.486 46.6572C136.973 46.3775 136.571 45.9905 136.279 45.497C135.988 45.0034 135.842 44.4469 135.842 43.8265C135.842 43.207 135.989 42.6495 136.283 42.1559C136.577 41.6624 136.982 41.2753 137.496 40.9957C138.009 40.716 138.584 40.5761 139.221 40.5761C139.737 40.5761 140.209 40.666 140.635 40.8475C140.946 40.9789 141.221 41.1531 141.462 41.3707C141.608 41.504 141.604 41.7383 141.46 41.8754L141.197 42.1226C141.069 42.2439 140.87 42.2457 140.735 42.1319C140.323 41.7819 139.836 41.6068 139.274 41.6068C138.842 41.6068 138.455 41.7012 138.112 41.8911C137.769 42.0809 137.502 42.344 137.31 42.681C137.118 43.018 137.022 43.4004 137.022 43.8273C137.022 44.2552 137.118 44.6366 137.31 44.9747C137.502 45.3127 137.769 45.5748 138.112 45.7645C138.455 45.9543 138.842 46.0489 139.274 46.0489C139.835 46.0489 140.321 45.872 140.733 45.5192C140.869 45.4024 141.069 45.4042 141.198 45.5284L141.462 45.7803C141.605 45.9173 141.608 46.1506 141.462 46.2831C141.22 46.5017 140.943 46.6766 140.63 46.8081C140.2 46.9887 139.727 47.0794 139.211 47.0794C138.575 47.0767 138 46.9368 137.486 46.6572Z" fill="#A8A8A8"/>
<path d="M143.852 46.6572C143.335 46.3775 142.93 45.9886 142.636 45.4923C142.341 44.9959 142.194 44.4403 142.194 43.8265C142.194 43.2125 142.341 42.6569 142.636 42.1606C142.93 41.6642 143.335 41.2753 143.852 40.9957C144.368 40.716 144.948 40.5761 145.591 40.5761C146.234 40.5761 146.813 40.716 147.33 40.9957C147.846 41.2753 148.252 41.6624 148.547 42.1559C148.84 42.6495 148.988 43.206 148.988 43.8265C148.988 44.4469 148.841 45.0034 148.547 45.497C148.252 45.9905 147.846 46.3775 147.33 46.6572C146.813 46.9368 146.234 47.0767 145.591 47.0767C144.948 47.0767 144.368 46.9368 143.852 46.6572ZM146.726 45.7627C147.063 45.5729 147.327 45.308 147.519 44.9681C147.711 44.6283 147.808 44.2477 147.808 43.8255C147.808 43.4041 147.711 43.0236 147.519 42.6828C147.327 42.343 147.063 42.0782 146.726 41.8883C146.39 41.6985 146.011 41.604 145.591 41.604C145.17 41.604 144.791 41.6985 144.455 41.8883C144.119 42.0782 143.855 42.343 143.662 42.6828C143.47 43.0227 143.374 43.4041 143.374 43.8255C143.374 44.2469 143.47 44.6274 143.662 44.9681C143.855 45.308 144.119 45.5729 144.455 45.7627C144.791 45.9525 145.17 46.047 145.591 46.047C146.011 46.0479 146.39 45.9525 146.726 45.7627Z" fill="#A8A8A8"/>
<path d="M154.308 40.9364C154.714 41.117 155.024 41.3764 155.241 41.7134C155.457 42.0505 155.565 42.4504 155.565 42.9145C155.565 43.3718 155.457 43.7709 155.241 44.1108C155.024 44.4505 154.713 44.7118 154.308 44.8923C153.903 45.0729 153.427 45.1636 152.88 45.1636H151.456V46.6684C151.456 46.8443 151.314 46.9869 151.138 46.9869H150.603C150.427 46.9869 150.285 46.8443 150.285 46.6684V40.9856C150.285 40.8096 150.427 40.667 150.603 40.667H152.88C153.426 40.6662 153.903 40.7559 154.308 40.9364ZM153.988 43.8441C154.252 43.6274 154.384 43.3173 154.384 42.9145C154.384 42.5117 154.252 42.2014 153.988 41.9847C153.723 41.768 153.335 41.6597 152.825 41.6597H151.456V44.1701H152.825C153.336 44.1691 153.723 44.0608 153.988 43.8441Z" fill="#A8A8A8"/>
<path d="M160.54 45.5237H157.386L156.842 46.8036C156.793 46.9147 156.685 46.9868 156.566 46.9868H156.021C155.803 46.9868 155.658 46.7619 155.746 46.5617L158.313 40.8428C158.363 40.7345 158.471 40.6651 158.588 40.6651H159.353C159.472 40.6651 159.579 40.7345 159.627 40.842L162.203 46.5609C162.292 46.7599 162.148 46.986 161.929 46.986H161.366C161.246 46.986 161.139 46.9147 161.09 46.8044L160.54 45.5237ZM160.151 44.6024L158.963 41.8392L157.783 44.6024H160.151Z" fill="#A8A8A8"/>
<path d="M172.989 31.4553L166.674 17.434C166.485 17.0136 166.064 16.7413 165.604 16.7413H163.686C163.225 16.7413 162.805 17.0136 162.616 17.434L156.321 31.4553C156.157 31.822 156.187 32.2405 156.406 32.5785C156.622 32.9146 156.99 33.1146 157.39 33.1146H158.808C159.282 33.1146 159.704 32.8341 159.889 32.3998L161.101 29.5514H168.15L169.38 32.4062C169.566 32.8368 169.99 33.1156 170.458 33.1156H171.921C172.323 33.1156 172.69 32.9156 172.907 32.5775C173.123 32.2405 173.155 31.8201 172.989 31.4553ZM162.477 26.3383L164.625 21.3139L166.786 26.3383H162.477Z" fill="#1D1D1B"/>
<path d="M68.558 30.3015C68.558 30.6247 68.4202 30.9404 68.1837 31.1627C67.5314 31.7794 66.7644 32.2757 65.9033 32.6387C64.8009 33.1007 63.5747 33.335 62.2572 33.335C60.63 33.335 59.1395 32.972 57.821 32.2526C57.1585 31.8915 56.5644 31.4591 56.0423 30.9562C55.5202 30.4533 55.0694 29.882 54.6933 29.2459C53.943 27.9746 53.5605 26.5206 53.5605 24.928C53.5605 23.3354 53.9467 21.8815 54.7062 20.6083C55.4648 19.3341 56.52 18.3248 57.8451 17.6034C59.1618 16.8858 60.6541 16.521 62.2811 16.521C63.5997 16.521 64.8213 16.7561 65.917 17.2202C66.7709 17.5813 67.5332 18.0775 68.1837 18.6915C68.422 18.9166 68.558 19.2313 68.558 19.5573C68.558 19.8832 68.4267 20.1861 68.1874 20.4101L67.3318 21.2186C66.8872 21.6371 66.2091 21.6492 65.7545 21.2472C64.8101 20.4065 63.718 19.9981 62.4124 19.9981C61.4458 19.9981 60.5717 20.212 59.8131 20.6305C59.0602 21.0472 58.4659 21.6343 58.0446 22.3741C57.6215 23.1158 57.4052 23.9751 57.4052 24.928C57.4052 25.8809 57.6215 26.7392 58.0446 27.4837C58.4659 28.2217 59.061 28.8088 59.8131 29.2255C60.5717 29.6459 61.4458 29.858 62.4124 29.858C63.7143 29.858 64.8064 29.4459 65.7498 28.5986C66.1981 28.195 66.8956 28.207 67.3355 28.6274L68.1947 29.4477C68.4304 29.6728 68.5598 29.9755 68.558 30.3015Z" fill="#27AE60"/>
<path d="M84.3426 17.9183V31.9396C84.3426 32.5867 83.8158 33.1146 83.1682 33.1146H81.7387C81.0929 33.1146 80.5661 32.5867 80.5661 31.9396V20.1304H73.5594V31.9405C73.5594 32.5878 73.0328 33.1156 72.385 33.1156H70.9557C70.3097 33.1156 69.7812 32.5878 69.7812 31.9405V17.9183C69.7812 17.2691 70.3097 16.7413 70.9557 16.7413H83.1682C83.8158 16.7423 84.3426 17.2691 84.3426 17.9183Z" fill="#27AE60"/>
<path d="M98.8605 30.9257V31.9396C98.8605 32.5867 98.3337 33.1146 97.6861 33.1146H87.5387C86.891 33.1146 86.3643 32.5867 86.3643 31.9396V17.9183C86.3643 17.2691 86.891 16.7413 87.5387 16.7413H97.3793C98.0271 16.7413 98.5537 17.2691 98.5537 17.9183V18.9322C98.5537 19.5814 98.0271 20.1092 97.3793 20.1092H90.185V23.1455H96.435C97.0808 23.1455 97.6094 23.6733 97.6094 24.3223V25.2928C97.6094 25.9419 97.0808 26.4697 96.435 26.4697H90.185V29.7487H97.6851C98.3337 29.7487 98.8605 30.2765 98.8605 30.9257Z" fill="#27AE60"/>
<path d="M116.682 30.9034V35.3287C116.682 35.9779 116.155 36.5057 115.508 36.5057H114.253C113.607 36.5057 113.078 35.9779 113.078 35.3287V33.1146H101.208C100.562 33.1146 100.033 32.5867 100.033 31.9396V17.9183C100.033 17.2691 100.562 16.7413 101.208 16.7413H102.637C103.285 16.7413 103.812 17.2691 103.812 17.9183V29.7265H110.598V17.9183C110.598 17.2691 111.125 16.7413 111.773 16.7413H113.222C113.87 16.7413 114.397 17.2691 114.397 17.9183V29.7265H115.508C116.155 29.7265 116.682 30.2543 116.682 30.9034Z" fill="#27AE60"/>
<path d="M143.499 17.9184V18.9527C143.499 19.6017 142.973 20.1295 142.325 20.1295H138.405V31.9397C138.405 32.5868 137.879 33.1147 137.231 33.1147H135.779C135.134 33.1147 134.607 32.5868 134.607 31.9397V20.1305H130.708C130.06 20.1305 129.533 19.6027 129.533 18.9536V17.9192C129.533 17.2702 130.06 16.7424 130.708 16.7424H142.325C142.973 16.7424 143.499 17.2692 143.499 17.9184Z" fill="#1D1D1B"/>
<path d="M127.768 23.0251H120.216C119.571 23.0251 119.043 23.5539 119.043 24.2002V25.6549C119.043 26.3041 119.57 26.8319 120.216 26.8319H127.768C128.277 26.8319 128.69 26.4189 128.69 25.9086V23.9483C128.69 23.4381 128.277 23.0251 127.768 23.0251Z" fill="#1D1D1B"/>
<path d="M157.712 19.5156C157.424 19.0665 157.073 18.6665 156.658 18.3201C156.242 17.9738 155.765 17.6812 155.23 17.4423C154.183 16.9766 152.946 16.7413 151.552 16.7413H145.92C145.272 16.7413 144.745 17.2691 144.745 17.9183V31.9396C144.745 32.5867 145.272 33.1146 145.92 33.1146H147.392C148.04 33.1146 148.567 32.5867 148.567 31.9396V28.669H151.553C152.947 28.669 154.184 28.4337 155.231 27.968C156.302 27.4902 157.14 26.7892 157.715 25.8818C158.29 24.9771 158.581 23.9095 158.581 22.7056C158.581 21.4861 158.29 20.4148 157.712 19.5156ZM154.737 22.7066C154.737 23.5437 154.48 24.1613 153.95 24.5983C153.397 25.0493 152.546 25.2807 151.422 25.2807H148.568V20.1304H151.422C152.545 20.1304 153.397 20.361 153.95 20.8147C154.479 21.249 154.737 21.8677 154.737 22.7066Z" fill="#1D1D1B"/>
<path d="M188.695 17.9183V31.9396C188.695 32.5867 188.167 33.1146 187.52 33.1146H186.047C185.399 33.1146 184.873 32.5867 184.873 31.9396V26.5124H177.888V31.9396C177.888 32.5867 177.362 33.1146 176.715 33.1146H175.241C174.594 33.1146 174.066 32.5867 174.066 31.9396V17.9183C174.066 17.2691 174.594 16.7413 175.241 16.7413H176.715C177.362 16.7413 177.888 17.2691 177.888 17.9183V23.102H184.873V17.9183C184.873 17.2691 185.399 16.7413 186.047 16.7413H187.52C188.167 16.7423 188.695 17.2691 188.695 17.9183Z" fill="#1D1D1B"/>
<path d="M204.647 30.3015C204.647 30.6247 204.51 30.9404 204.274 31.1627C203.621 31.7794 202.852 32.2757 201.992 32.6387C200.891 33.1007 199.664 33.335 198.346 33.335C196.719 33.335 195.229 32.972 193.91 32.2526C192.586 31.5312 191.533 30.5191 190.782 29.2459C190.032 27.9746 189.65 26.5206 189.65 24.928C189.65 23.3354 190.035 21.8815 190.795 20.6083C191.554 19.3369 192.61 18.3248 193.934 17.6034C195.25 16.8858 196.743 16.521 198.37 16.521C199.689 16.521 200.911 16.7561 202.007 17.2202C202.861 17.5813 203.622 18.0775 204.274 18.6915C204.511 18.9166 204.647 19.2313 204.647 19.5573C204.647 19.8832 204.516 20.1861 204.277 20.4101L203.422 21.2186C202.975 21.6371 202.298 21.6492 201.843 21.2472C200.899 20.4065 199.806 19.9981 198.502 19.9981C197.534 19.9981 196.661 20.212 195.902 20.6305C195.149 21.0472 194.555 21.6343 194.135 22.3741C193.711 23.1158 193.495 23.9751 193.495 24.928C193.495 25.8809 193.711 26.7392 194.135 27.4837C194.555 28.2217 195.151 28.8088 195.902 29.2255C196.661 29.6459 197.534 29.858 198.502 29.858C199.804 29.858 200.896 29.4459 201.84 28.5986C202.287 28.195 202.985 28.207 203.427 28.6274L204.284 29.4477C204.52 29.6728 204.649 29.9755 204.647 30.3015Z" fill="#1D1D1B"/>
<path d="M39.6304 13.8439L36.5979 15.0895C35.8559 15.394 35.7089 16.3673 36.3132 16.8941C42.2777 22.0889 44.4842 30.1746 41.7769 37.651C38.8053 45.8515 30.8497 50.7944 22.0061 49.9667C13.4933 49.1601 6.34247 42.1597 5.37222 33.6795C4.35026 24.5382 9.42766 16.2237 17.7547 13.4633C17.8064 13.4429 17.8888 13.4319 17.971 13.4319C18.2602 13.4319 18.6824 13.5356 19.0031 13.6078L19.2507 13.6699C19.746 13.7838 20.2513 13.9495 20.7882 14.1245C21.8822 14.4967 22.9966 14.8691 24.2145 14.8486C25.8444 14.8172 27.5889 14.5588 29.4359 14.0939L29.5293 14.0624C30.0042 13.9485 30.4883 13.8143 30.9734 13.6588L31.5104 13.493C32.0877 13.3171 32.656 13.141 33.2235 12.9652L34.1003 12.7068L43.6036 9.89367L42.7166 9.10747C39.4558 6.21187 36.1533 4.01929 32.6145 2.41727C29.6013 1.03198 27.0012 0.421746 24.3909 0.504164C20.3771 0.658809 17.2095 2.5617 14.7018 6.31562L14.5882 6.48146C18.3545 5.4573 26.8876 4.09242 36.815 8.73529C36.815 8.73529 21.7389 5.89156 13.5977 9.5834C13.2161 9.75945 12.8446 9.95575 12.4834 10.1623C12.2874 10.2658 12.1017 10.3798 11.9159 10.503C3.74412 15.4153 -0.930403 24.7529 0.328095 34.2768C1.73165 44.9691 9.89334 53.2521 20.6459 54.9068C21.8019 55.0827 22.9467 55.1754 24.0925 55.1754C28.633 55.1754 33.0487 53.8308 36.8363 51.4113C40.6127 48.9916 43.7598 45.5061 45.7621 41.2356C50.0375 32.0794 47.9769 21.1074 40.7928 14.0596C40.4851 13.7642 40.0249 13.6827 39.6304 13.8439Z" fill="#27AE60"/>
<path d="M31.2526 40.9882L31.1602 42.6125C31.1602 42.6125 31.1492 42.6125 31.1371 42.6013C30.6547 42.2559 23.0327 36.7723 18.7786 33.1777C18.7324 33.1434 18.6871 33.097 18.6409 33.0627C17.5488 32.1294 16.4566 31.1616 15.5021 30.0561C13.2032 27.4291 12.6626 23.9271 14.019 20.9434C23.5262 23.6742 27.0899 32.9017 27.3201 33.5239C25.3889 24.653 18.1004 19.0424 15.3987 17.233L16.525 17.1636C19.1002 17.0136 22.8248 17.1405 25.4572 19.9748C27.2167 21.8871 28.6303 24.065 29.5385 26.2883C31.5169 31.0922 31.5288 36.1963 31.2526 40.9882Z" fill="#27AE60"/>
</g>
<defs>
<clipPath id="clip0_1_803">
<rect width="209" height="55" fill="white"/>
</clipPath>
</defs>
</svg>
