<svg width="130" height="98" viewBox="0 0 130 98" fill="none" xmlns="http://www.w3.org/2000/svg">
<path d="M125.973 4.03464C120.565 -1.34488 111.853 -1.34488 106.483 4.03464L46.1293 64.5637L23.5169 41.9297C18.109 36.5502 9.39725 36.5502 4.02739 41.9297C-1.34246 47.3474 -1.34246 56.0748 4.02739 61.4543L35.0754 92.5296C35.4468 93.016 35.8562 93.4929 36.3036 93.9412C39.5979 97.2414 44.1394 98.5291 48.3858 97.8042C51.166 97.3654 53.8414 96.0778 55.9741 93.9412C56.4216 93.4929 56.831 93.016 57.2023 92.5201L125.973 23.5592C131.342 18.1416 131.342 9.41415 125.973 4.03464Z" fill="#27AE60"/>
</svg>
